<svg id="Layer_1" data-name="Layer 1" xmlns="http://www.w3.org/2000/svg" viewBox="0 0 159 173"><defs><style>.cls-1,.cls-3{fill:#fff;}.cls-1{stroke:#009245;}.cls-1,.cls-2,.cls-3{stroke-miterlimit:10;}.cls-2{stroke:#fff;}.cls-3{stroke:#000;stroke-linecap:round;}.cls-4{fill:red;}</style></defs><title>mask</title><path class="cls-1" d="M228.5,85.5a21,21,0,1,0-41.87,2.26,79.07,79.07,0,0,0-74.26,0,21,21,0,1,0-23.08,18.62,79,79,0,1,0,120.42,0A21,21,0,0,0,228.5,85.5Z" transform="translate(-70 -64)"/><circle class="cls-2" cx="53.5" cy="65.5" r="4"/><circle class="cls-2" cx="107.5" cy="65.5" r="4"/><path class="cls-3" d="M180.5,182.5a30,30,0,0,1-60,0" transform="translate(-70 -64)"/><ellipse class="cls-4" cx="38.5" cy="103" rx="12.5" ry="6"/><ellipse class="cls-4" cx="122.5" cy="103" rx="12.5" ry="6"/></svg>